STARTFONT 2.1
FONT -Monotype-Century Schoolbook-Bold-R-Normal--33-240-100-100-P-172-iso8859-9
SIZE 24 100 100
FONTBOUNDINGBOX 40 40 -6 -7

STARTPROPERTIES 24
FOUNDRY "Monotype"
FAMILY_NAME "Century Schoolbook"
WEIGHT_NAME "Bold"
SLANT "R"
SETWIDTH_NAME "Normal"
ADD_STYLE_NAME ""
PIXEL_SIZE 33
POINT_SIZE 240
RESOLUTION_X 100
RESOLUTION_Y 100
SPACING "P"
AVERAGE_WIDTH 172
CHARSET_REGISTRY "iso8859"
CHARSET_ENCODING "9"
FACE_NAME "Century Schoolbook Bold ISO Latin5"
_DEC_DEVICE_FONTNAMES "PS=centuryschoolbook-b-lat5"
COPYRIGHT "Copyright (c) 1993 Monotype Typography Ltd."
CAP_HEIGHT 28
X_HEIGHT 18
WEIGHT 10
QUAD_WIDTH 20
DEFAULT_CHAR 160
FONT_DESCENT 7
FONT_ASCENT 33
ENDPROPERTIES

CHARS 191

STARTCHAR space
ENCODING 32
SWIDTH 287 0
DWIDTH 9 0
BBX 0 0 0 0
BITMAP
ENDCHAR

STARTCHAR exclam
ENCODING 33
SWIDTH 296 0
DWIDTH 10 0
BBX 6 25 2 0
BITMAP
78
78
FC
FC
FC
78
78
78
78
78
30
30
30
30
30
30
30
00
00
30
78
FC
FC
78
30
ENDCHAR

STARTCHAR quotedbl
ENCODING 34
SWIDTH 333 0
DWIDTH 11 0
BBX 11 11 0 12
BITMAP
70C0
F1E0
F1E0
F1E0
F1E0
F1E0
71C0
60C0
60C0
60C0
2040
ENDCHAR

STARTCHAR numbersign
ENCODING 35
SWIDTH 574 0
DWIDTH 19 0
BBX 18 23 0 1
BITMAP
038300
038700
030700
070700
070600
060E00
FFFFC0
FFFFC0
FFFFC0
0E0C00
0E1C00
0C1C00
1C1C00
1C1800
FFFFC0
FFFFC0
DFFFC0
383800
383800
383000
387000
307000
707000
ENDCHAR

STARTCHAR dollar
ENCODING 36
SWIDTH 574 0
DWIDTH 19 0
BBX 15 29 2 -4
BITMAP
0300
0300
0FE0
3FF8
731C
631E
E33E
E33E
E33C
F300
7F00
7F00
3FC0
1FF0
0FF8
03FC
037E
233E
731E
FB0E
FB0E
F30C
631C
7378
1FE0
0300
0300
0300
0300
ENDCHAR

STARTCHAR percent
ENCODING 37
SWIDTH 833 0
DWIDTH 27 0
BBX 23 24 2 0
BITMAP
1C0000
770030
630060
E38040
E38080
E38180
E38100
E38200
E38600
630400
370800
1C1800
001070
0021DC
00418C
00C38E
00838E
01038E
03038E
02038E
04038E
0C018C
0801DC
100070
ENDCHAR

STARTCHAR ampersand
ENCODING 38
SWIDTH 852 0
DWIDTH 28 0
BBX 25 24 1 0
BITMAP
00FE0000
03C70000
03838000
07838000
07838000
07838000
07C70000
07C60000
03EC0000
03F00000
03F0FF80
07F0FF80
1EF81C00
3CFC1800
787C1800
787E3000
F83F3000
F81FE000
FC0FC080
7C0FE080
7E07F180
3F8FFF80
3FFCFF00
0FE07E00
ENDCHAR

STARTCHAR quoteright
ENCODING 39
SWIDTH 241 0
DWIDTH 8 0
BBX 6 11 1 13
BITMAP
70
F8
FC
FC
FC
3C
0C
08
18
70
C0
ENDCHAR

STARTCHAR parenleft
ENCODING 40
SWIDTH 389 0
DWIDTH 13 0
BBX 10 30 2 -6
BITMAP
0040
0180
0380
0700
0E00
1E00
1C00
3C00
7C00
7800
7800
F800
F800
F800
F800
F800
F800
F800
F800
7800
7C00
3C00
3C00
1C00
0E00
0E00
0700
0380
00C0
0040
ENDCHAR

STARTCHAR parenright
ENCODING 41
SWIDTH 389 0
DWIDTH 13 0
BBX 10 30 1 -6
BITMAP
8000
6000
7000
3800
1C00
1E00
0E00
0F00
0F80
0780
0780
07C0
07C0
07C0
07C0
07C0
07C0
07C0
07C0
0780
0780
0F80
0F00
0E00
1E00
1C00
3800
7000
E000
4000
ENDCHAR

STARTCHAR asterisk
ENCODING 42
SWIDTH 500 0
DWIDTH 17 0
BBX 16 15 0 9
BITMAP
03C0
03C0
03C0
03C0
718E
F99F
FC3F
7FFE
0180
0360
0E70
1E78
1E78
1E78
0810
ENDCHAR

STARTCHAR plus
ENCODING 43
SWIDTH 606 0
DWIDTH 20 0
BBX 18 18 1 2
BITMAP
01C000
01C000
01C000
01C000
01C000
01C000
01C000
01C000
FFFFC0
FFFFC0
FFFFC0
01C000
01C000
01C000
01C000
01C000
01C000
01C000
ENDCHAR

STARTCHAR comma
ENCODING 44
SWIDTH 278 0
DWIDTH 9 0
BBX 6 11 2 -5
BITMAP
70
F8
FC
FC
FC
3C
0C
08
18
70
C0
ENDCHAR

STARTCHAR minus
ENCODING 45
SWIDTH 606 0
DWIDTH 20 0
BBX 18 3 1 9
BITMAP
FFFFC0
FFFFC0
FFFFC0
ENDCHAR

STARTCHAR period
ENCODING 46
SWIDTH 278 0
DWIDTH 9 0
BBX 5 6 2 0
BITMAP
70
F8
F8
F8
F8
70
ENDCHAR

STARTCHAR slash
ENCODING 47
SWIDTH 278 0
DWIDTH 9 0
BBX 11 24 -1 0
BITMAP
00E0
01C0
01C0
01C0
0380
0380
0380
0780
0700
0700
0F00
0E00
0E00
0E00
1C00
1C00
1C00
3800
3800
3800
7000
7000
7000
F000
ENDCHAR

STARTCHAR zero
ENCODING 48
SWIDTH 574 0
DWIDTH 19 0
BBX 16 23 1 0
BITMAP
07E0
1E78
3C3C
3C3C
7C3E
781E
781E
F81F
F81F
F81F
F81F
F81F
F81F
F81F
F81F
781F
781E
783E
3C3E
3C3C
1E78
0FF0
03C0
ENDCHAR

STARTCHAR one
ENCODING 49
SWIDTH 574 0
DWIDTH 19 0
BBX 13 22 3 0
BITMAP
0380
1F80
FF80
0F80
0780
0780
0780
0780
0780
0780
0780
0780
0780
0780
0780
0780
0780
0780
0780
0780
0FC0
7FF8
ENDCHAR

STARTCHAR two
ENCODING 50
SWIDTH 574 0
DWIDTH 19 0
BBX 15 23 2 0
BITMAP
07C0
1FF8
307C
203C
603E
703E
7C3E
7C3E
7C3E
387C
0078
00F8
00F0
01C0
0380
0702
0C06
1806
300E
3FFE
7FFE
FFFE
FFFE
ENDCHAR

STARTCHAR three
ENCODING 51
SWIDTH 574 0
DWIDTH 19 0
BBX 15 24 2 0
BITMAP
07C0
1FF0
30F8
7078
787C
7C7C
7C7C
3878
0078
00F0
0F80
0FE0
0078
007C
003C
703E
F83E
F83E
F83E
F03E
607C
70F8
3FF0
0FC0
ENDCHAR

STARTCHAR four
ENCODING 52
SWIDTH 574 0
DWIDTH 19 0
BBX 15 22 2 0
BITMAP
0030
0070
00F0
00F0
01F0
03F0
02F0
06F0
0CF0
18F0
18F0
30F0
60F0
C0F0
80F0
FFFE
FFFE
00F0
00F0
00F0
01F8
07FE
ENDCHAR

STARTCHAR five
ENCODING 53
SWIDTH 574 0
DWIDTH 19 0
BBX 15 24 2 0
BITMAP
3808
3FF8
3FF8
3FF0
3FC0
3000
2000
2000
27C0
3FF0
30F8
607C
603C
003E
003E
303E
783E
F83E
F83E
F03C
607C
70F8
3FF0
0780
ENDCHAR

STARTCHAR six
ENCODING 54
SWIDTH 574 0
DWIDTH 19 0
BBX 16 23 2 0
BITMAP
03F8
0F3C
1E1E
1C3E
3C3E
7C1C
7C00
7800
F800
F9F8
FBFC
FE3E
FC3E
FC1F
F81F
F81F
F81F
781F
781E
3C1E
3C3C
1E78
07F0
ENDCHAR

STARTCHAR seven
ENCODING 55
SWIDTH 574 0
DWIDTH 19 0
BBX 14 23 3 -1
BITMAP
7FFC
FFFC
FFFC
FFE8
C018
C010
8030
8030
0060
00E0
00E0
01C0
01C0
03C0
03C0
07C0
07C0
07C0
0F80
0F80
0F80
0F80
0700
ENDCHAR

STARTCHAR eight
ENCODING 56
SWIDTH 574 0
DWIDTH 19 0
BBX 16 23 2 0
BITMAP
0FF0
1C3C
381C
300E
700E
700E
780E
7C1C
3F38
3FE0
1FF8
07FC
0FFE
387F
701F
700F
F007
F007
F007
700E
780E
3E3C
0FF0
ENDCHAR

STARTCHAR nine
ENCODING 57
SWIDTH 574 0
DWIDTH 19 0
BBX 16 23 2 0
BITMAP
0FE0
1E78
3C3C
781C
781E
F81E
F81F
F81F
F81F
781F
783F
7C7F
3FDF
0F9F
001F
001E
101E
3C3E
7C3C
7C38
3878
3CF0
0FC0
ENDCHAR

STARTCHAR colon
ENCODING 58
SWIDTH 278 0
DWIDTH 9 0
BBX 6 16 2 0
BITMAP
30
78
FC
FC
78
30
00
00
00
00
30
78
FC
FC
78
30
ENDCHAR

STARTCHAR semicolon
ENCODING 59
SWIDTH 278 0
DWIDTH 9 0
BBX 6 21 2 -5
BITMAP
30
78
FC
FC
78
30
00
00
00
00
30
F8
FC
FC
FC
3C
0C
18
18
30
C0
ENDCHAR

STARTCHAR less
ENCODING 60
SWIDTH 606 0
DWIDTH 20 0
BBX 18 18 1 2
BITMAP
000040
0001C0
000FC0
003FC0
01FE00
07F800
1FC000
FF0000
F00000
F80000
FF0000
1FC000
07F800
01FE00
003FC0
000FC0
0001C0
000040
ENDCHAR

STARTCHAR equal
ENCODING 61
SWIDTH 606 0
DWIDTH 20 0
BBX 18 11 1 6
BITMAP
FFFFC0
FFFFC0
FFFFC0
000000
000000
000000
000000
000000
FFFFC0
FFFFC0
FFFFC0
ENDCHAR

STARTCHAR greater
ENCODING 62
SWIDTH 606 0
DWIDTH 20 0
BBX 18 18 1 2
BITMAP
800000
E00000
FC0000
FF0000
1FC000
07F800
00FE00
003FC0
0003C0
0007C0
003FC0
00FE00
07F800
1FE000
FF0000
FC0000
E00000
800000
ENDCHAR

STARTCHAR question
ENCODING 63
SWIDTH 500 0
DWIDTH 17 0
BBX 13 24 2 0
BITMAP
1FC0
71E0
60F0
F0F0
F8F8
F8F8
F8F8
30F0
01F0
01E0
03C0
0380
0700
0600
0600
0400
0400
0000
0600
0F00
1F80
1F80
0F00
0600
ENDCHAR

STARTCHAR at
ENCODING 64
SWIDTH 747 0
DWIDTH 25 0
BBX 24 25 1 -1
BITMAP
007F00
01C0E0
060010
0C0008
180004
300004
603DC2
6075C2
40E382
C1C782
C1C782
838782
838702
838F04
878F04
C79608
C7EE10
43CE61
438782
200002
300004
180008
0C0030
0381C0
007E00
ENDCHAR

STARTCHAR A
ENCODING 65
SWIDTH 759 0
DWIDTH 25 0
BBX 25 24 0 0
BITMAP
001C0000
001C0000
001C0000
003E0000
003E0000
007F0000
006F0000
00DF8000
00CF8000
008F8000
0187C000
0187C000
0303E000
0303E000
0201F000
07FFF000
07FFF000
0C00F800
0C00F800
1800FC00
18007C00
38007E00
7C007E00
FF83FF80
ENDCHAR

STARTCHAR B
ENCODING 66
SWIDTH 778 0
DWIDTH 26 0
BBX 22 24 2 0
BITMAP
FFFFC0
1F87E0
1F01F0
1F00F8
1F00F8
1F00F8
1F00F8
1F00F8
1F01F0
1F01E0
1F0680
1FFF00
1F07E0
1F01F8
1F00FC
1F007C
1F007C
1F007C
1F007C
1F007C
1F00FC
1F01F8
3F83F0
FFFFC0
ENDCHAR

STARTCHAR C
ENCODING 67
SWIDTH 778 0
DWIDTH 26 0
BBX 21 24 2 0
BITMAP
01FE10
07C3B0
0F80F0
1F0070
3E0030
3E0038
7E0018
7C0018
7C0018
FC0000
FC0000
FC0000
FC0000
FC0000
FC0000
7C0008
7C0018
7E0018
3E0010
1F0030
1F0060
07C1C0
03FF80
00FE00
ENDCHAR

STARTCHAR D
ENCODING 68
SWIDTH 833 0
DWIDTH 27 0
BBX 25 24 1 0
BITMAP
FFFFC000
1FC3F000
0F80F800
0F807C00
0F803E00
0F803E00
0F801F00
0F801F00
0F801F80
0F801F80
0F801F80
0F801F80
0F801F80
0F801F80
0F801F80
0F801F80
0F801F00
0F801F00
0F803E00
0F803E00
0F807C00
0F80F800
1FC3F000
FFFFC000
ENDCHAR

STARTCHAR E
ENCODING 69
SWIDTH 759 0
DWIDTH 25 0
BBX 22 24 1 0
BITMAP
FFFFF8
1FC0F8
0F8038
0F8018
0F8018
0F8008
0F830C
0F830C
0F8300
0F8700
0F8F00
0FFF00
0F8F00
0F8700
0F8300
0F8304
0F8304
0F800C
0F800C
0F800C
0F801C
0F803C
1FC0FC
FFFFFC
ENDCHAR

STARTCHAR F
ENCODING 70
SWIDTH 722 0
DWIDTH 24 0
BBX 22 24 1 0
BITMAP
FFFFF8
1FC0F8
0F8038
0F8018
0F801C
0F800C
0F810C
0F810C
0F8300
0F8700
0F8F00
0FFF00
0F8F00
0F8300
0F8300
0F8100
0F8100
0F8000
0F8000
0F8000
0F8000
0F8000
1FC000
FFF800
ENDCHAR

STARTCHAR G
ENCODING 71
SWIDTH 833 0
DWIDTH 27 0
BBX 25 24 2 0
BITMAP
01FE1800
07C3B800
0F80F800
1F007800
3E003800
3E003800
7C001800
7C001800
7C001800
FC000000
FC000000
FC000000
FC000000
FC07FF80
FC007C00
7C007C00
7C007C00
7C007C00
3E007C00
3E007C00
1F00EC00
0F01DC00
07C78C00
01FE0C00
ENDCHAR

STARTCHAR H
ENCODING 72
SWIDTH 870 0
DWIDTH 29 0
BBX 25 24 2 0
BITMAP
FFE3FF80
3F007C00
1F007C00
1F007C00
1F007C00
1F007C00
1F007C00
1F007C00
1F007C00
1F007C00
1FFFFC00
1FFFFC00
1F007C00
1F007C00
1F007C00
1F007C00
1F007C00
1F007C00
1F007C00
1F007C00
1F007C00
1F007C00
3F80FE00
FFE3FF80
ENDCHAR

STARTCHAR I
ENCODING 73
SWIDTH 444 0
DWIDTH 15 0
BBX 13 24 1 0
BITMAP
FFF8
1FC0
0F80
0F80
0F80
0F80
0F80
0F80
0F80
0F80
0F80
0F80
0F80
0F80
0F80
0F80
0F80
0F80
0F80
0F80
0F80
0F80
1FC0
FFF8
ENDCHAR

STARTCHAR J
ENCODING 74
SWIDTH 648 0
DWIDTH 21 0
BBX 19 24 1 0
BITMAP
01FFE0
001F80
001F00
001F00
001F00
001F00
001F00
001F00
001F00
001F00
001F00
001F00
001F00
181F00
7E1F00
7E1F00
FE1F00
FE1F00
FC1F00
601F00
603E00
307C00
1FF800
03E000
ENDCHAR

STARTCHAR K
ENCODING 75
SWIDTH 815 0
DWIDTH 27 0
BBX 25 24 2 0
BITMAP
FFF3FF00
3F80FC00
1F007000
1F00E000
1F00C000
1F018000
1F030000
1F060000
1F0C0000
1F1E0000
1F3F0000
1F3F0000
1F6F8000
1FCF8000
1F8FC000
1F87C000
1F07E000
1F03E000
1F01F000
1F01F800
1F00F800
1F00FC00
3F80FE00
FFF7FF80
ENDCHAR

STARTCHAR L
ENCODING 76
SWIDTH 722 0
DWIDTH 24 0
BBX 22 24 1 0
BITMAP
FFF800
1FC000
0F8000
0F8000
0F8000
0F8000
0F8000
0F8000
0F8000
0F8000
0F8000
0F8000
0F8000
0F8000
0F8000
0F800C
0F800C
0F800C
0F801C
0F801C
0F803C
0F807C
1FC0FC
FFFFF8
ENDCHAR

STARTCHAR M
ENCODING 77
SWIDTH 981 0
DWIDTH 32 0
BBX 30 24 2 0
BITMAP
FF801FFC
1BC01BC0
1BC01BC0
1BC017C0
1BE037C0
1BE037C0
19E027C0
19F067C0
19F067C0
18F047C0
18F8C7C0
18F8C7C0
18F887C0
187D87C0
187D87C0
187D07C0
183F07C0
183F07C0
183E07C0
181E07C0
181E07C0
3C1C07C0
7E0C0FE0
FF0C3FFC
ENDCHAR

STARTCHAR N
ENCODING 78
SWIDTH 833 0
DWIDTH 27 0
BBX 25 24 1 0
BITMAP
FF007F80
1F803F00
0FC01E00
0FC00C00
0FE00C00
0DF00C00
0DF80C00
0CF80C00
0CFC0C00
0C7E0C00
0C3F0C00
0C1F0C00
0C1F8C00
0C0FCC00
0C07EC00
0C03EC00
0C03FC00
0C01FC00
0C00FC00
0C007C00
0C007C00
1E003C00
3F001C00
FFC00C00
ENDCHAR

STARTCHAR O
ENCODING 79
SWIDTH 833 0
DWIDTH 27 0
BBX 24 24 2 0
BITMAP
007E00
03FFC0
0781E0
1F00F0
1E0078
3E007C
7E003E
7C003E
7C003E
FC003F
FC003F
FC003F
FC003F
FC003F
FC003F
7C003E
7C003E
7C003E
3E007C
1E0078
0F00F0
0781E0
03FFC0
007E00
ENDCHAR

STARTCHAR P
ENCODING 80
SWIDTH 759 0
DWIDTH 25 0
BBX 22 24 2 0
BITMAP
FFFFC0
1FC3F0
0F80F8
0F80FC
0F807C
0F807C
0F807C
0F807C
0F807C
0F80F8
0F80F8
0F83F0
0FFFC0
0F8000
0F8000
0F8000
0F8000
0F8000
0F8000
0F8000
0F8000
0F8000
1FC000
FFF800
ENDCHAR

STARTCHAR Q
ENCODING 81
SWIDTH 833 0
DWIDTH 27 0
BBX 25 30 2 -6
BITMAP
007E0000
03FFC000
0781E000
0F00F000
1E007800
3E007C00
7C003E00
7C003E00
7C003E00
FC003F00
FC003F00
FC003F00
FC003F00
FC003F00
FC3C3F00
7C7F3E00
7CC3BE00
3F83BC00
3F81FC00
1F81F800
0F81F000
07C1E000
01FFE000
007EF000
0001F180
0001F900
0001FD00
0000FF00
0000FE00
00007C00
ENDCHAR

STARTCHAR R
ENCODING 82
SWIDTH 815 0
DWIDTH 27 0
BBX 24 24 2 0
BITMAP
FFFF80
3F87E0
1F01F0
1F01F8
1F00F8
1F00F8
1F00F8
1F00F8
1F01F0
1F03F0
1F0FC0
1FFC00
1F1F00
1F0780
1F07C0
1F03C0
1F03E0
1F03E0
1F03F3
1F01F3
1F01F2
1F01FE
3F80FC
FFF078
ENDCHAR

STARTCHAR S
ENCODING 83
SWIDTH 667 0
DWIDTH 22 0
BBX 18 24 2 0
BITMAP
0FE180
3C3980
700F80
700780
E00380
E00380
E00180
F00180
FC0000
FFC000
7FFC00
3FFF00
1FFF80
03FF80
003FC0
8007C0
8003C0
C001C0
C001C0
E001C0
F00380
F80700
CE1E00
87F800
ENDCHAR

STARTCHAR T
ENCODING 84
SWIDTH 722 0
DWIDTH 24 0
BBX 21 24 2 0
BITMAP
FFFFF8
F9FCF8
F0F878
E0F838
C0F818
C0F818
C0F818
80F808
80F808
00F800
00F800
00F800
00F800
00F800
00F800
00F800
00F800
00F800
00F800
00F800
00F800
00F800
01FC00
0FFF80
ENDCHAR

STARTCHAR U
ENCODING 85
SWIDTH 833 0
DWIDTH 27 0
BBX 26 24 1 0
BITMAP
FFF0FFC0
3F803F00
1F001E00
1F000C00
1F000C00
1F000C00
1F000C00
1F000C00
1F000C00
1F000C00
1F000C00
1F000C00
1F000C00
1F000C00
1F000C00
1F000C00
1F000C00
1F000C00
1F801C00
1F801800
0FC03800
07F0F000
03FFE000
00FF8000
ENDCHAR

STARTCHAR V
ENCODING 86
SWIDTH 759 0
DWIDTH 25 0
BBX 25 24 0 0
BITMAP
FFE0FF80
3F003F00
1F001E00
1F000C00
0F801800
0F801800
0FC01800
07C03000
07C03000
03E06000
03E06000
01F06000
01F0C000
01F0C000
00F98000
00F98000
007D8000
007F0000
007F0000
003E0000
003E0000
001E0000
001C0000
000C0000
ENDCHAR

STARTCHAR W
ENCODING 87
SWIDTH 981 0
DWIDTH 32 0
BBX 34 24 -1 0
BITMAP
FF8FFE1FC0
7E01F80F80
3E01F00700
1F00F80600
1F00F80600
1F00F80600
0F81FC0C00
0F81BC0C00
0F81BC0C00
07C33E1800
07C33E1800
07C33E1800
03E61F3000
03E61F3000
03E61F3000
01FC0FE000
01FC0FE000
01FC0FE000
00F807C000
00F807C000
00F803C000
0070038000
0070038000
0060018000
ENDCHAR

STARTCHAR X
ENCODING 88
SWIDTH 722 0
DWIDTH 24 0
BBX 25 24 -1 0
BITMAP
FFF1FF80
3F807E00
1F803800
0F807000
0FC07000
07E0E000
03F1C000
03F18000
01FB0000
00FE0000
007E0000
007E0000
003F0000
003F8000
006F8000
00CFC000
01C7E000
0383F000
0303F000
0601F800
0E00FC00
1E007C00
7F00FF00
FFC3FF80
ENDCHAR

STARTCHAR Y
ENCODING 89
SWIDTH 722 0
DWIDTH 24 0
BBX 24 24 0 0
BITMAP
FFF1FF
3F807C
1F8038
0F8030
0FC070
07C060
07E0E0
03F0C0
01F0C0
01F980
00F980
00FF00
007F00
007E00
003E00
003E00
003E00
003E00
003E00
003E00
003E00
003E00
007F00
03FFE0
ENDCHAR

STARTCHAR Z
ENCODING 90
SWIDTH 667 0
DWIDTH 22 0
BBX 20 24 1 0
BITMAP
3FFFE0
3E07E0
3807E0
300FC0
700F80
601F80
603F00
603E00
007E00
007C00
00FC00
01F800
01F000
03F000
07E000
07E030
0FC030
0F8030
1F8070
3F0060
3E00E0
7E01E0
7C03E0
FFFFE0
ENDCHAR

STARTCHAR bracketleft
ENCODING 91
SWIDTH 389 0
DWIDTH 13 0
BBX 8 29 4 -5
BITMAP
FF
F8
F0
F0
F0
F0
F0
F0
F0
F0
F0
F0
F0
F0
F0
F0
F0
F0
F0
F0
F0
F0
F0
F0
F0
F0
F0
F8
FF
ENDCHAR

STARTCHAR backslash
ENCODING 92
SWIDTH 606 0
DWIDTH 20 0
BBX 19 24 1 0
BITMAP
E00000
F00000
700000
380000
3C0000
1C0000
0E0000
0F0000
070000
038000
01C000
01C000
00E000
007000
007000
003800
001C00
001C00
000E00
000700
000700
000380
0001C0
0001E0
ENDCHAR

STARTCHAR bracketright
ENCODING 93
SWIDTH 389 0
DWIDTH 13 0
BBX 8 29 0 -5
BITMAP
FF
1F
0F
0F
0F
0F
0F
0F
0F
0F
0F
0F
0F
0F
0F
0F
0F
0F
0F
0F
0F
0F
0F
0F
0F
0F
0F
1F
FF
ENDCHAR

STARTCHAR asciicircum
ENCODING 94
SWIDTH 606 0
DWIDTH 20 0
BBX 14 12 3 12
BITMAP
0300
0300
0780
0780
0FC0
1EE0
1CE0
3CF0
3870
7078
703C
E01C
ENDCHAR

STARTCHAR underscore
ENCODING 95
SWIDTH 500 0
DWIDTH 17 0
BBX 17 2 0 -4
BITMAP
FFFF80
FFFF80
ENDCHAR

STARTCHAR quoteleft
ENCODING 96
SWIDTH 241 0
DWIDTH 8 0
BBX 6 11 1 13
BITMAP
0C
38
60
40
C0
F8
FC
FC
FC
7C
38
ENDCHAR

STARTCHAR a
ENCODING 97
SWIDTH 611 0
DWIDTH 20 0
BBX 18 16 1 0
BITMAP
0FF800
1C7C00
3C3E00
7C1E00
7C1E00
381E00
007E00
07FE00
1E1E00
7C1E00
781E00
F81E00
F83E00
FC6E00
7F8FC0
3F0780
ENDCHAR

STARTCHAR b
ENCODING 98
SWIDTH 648 0
DWIDTH 21 0
BBX 19 24 1 0
BITMAP
3E0000
FE0000
3E0000
1E0000
1E0000
1E0000
1E0000
1E0000
1E3E00
1EFF80
1F8FC0
1F07C0
1F03E0
1E03E0
1E03E0
1E03E0
1E03E0
1E03E0
1E03E0
1F03C0
1F07C0
1B8F80
39FF00
103800
ENDCHAR

STARTCHAR c
ENCODING 99
SWIDTH 556 0
DWIDTH 18 0
BBX 16 16 1 0
BITMAP
07F8
1F1E
3C0F
7C1F
7C1F
F81E
F800
F800
F800
F800
F801
7C03
7C02
3E0E
1FF8
03E0
ENDCHAR

STARTCHAR d
ENCODING 100
SWIDTH 667 0
DWIDTH 22 0
BBX 20 24 1 0
BITMAP
000F80
007F80
000F80
000780
000780
000780
000780
000780
07C780
1FF780
3E3780
7C0F80
7C0F80
F80F80
F80780
F80780
F80780
F80780
F80F80
FC0F80
7C1F80
7E3780
3FF7F0
0FC7F0
ENDCHAR

STARTCHAR e
ENCODING 101
SWIDTH 574 0
DWIDTH 19 0
BBX 15 16 2 0
BITMAP
0FE0
1E78
3C3C
781C
F81E
F81E
F83E
FFFE
F800
F800
F800
F802
7C06
3E0C
1FF8
07E0
ENDCHAR

STARTCHAR f
ENCODING 102
SWIDTH 389 0
DWIDTH 13 0
BBX 15 24 1 0
BITMAP
03F8
078C
0F1E
0E3E
1E3C
1E08
1E00
1E00
FFE0
FFE0
1E00
1E00
1E00
1E00
1E00
1E00
1E00
1E00
1E00
1E00
1E00
1E00
3F00
FFE0
ENDCHAR

STARTCHAR g
ENCODING 103
SWIDTH 611 0
DWIDTH 20 0
BBX 19 24 1 -6
BITMAP
0001C0
0003E0
0FFEE0
1E3CC0
3C1E00
7C1F00
7C1F00
7C1F00
7C1F00
3C1E00
2E3C00
1FF800
300000
600000
600000
7FFC00
7FFF00
3FFF00
1FFF80
700380
E00380
E00300
781E00
1FF800
ENDCHAR

STARTCHAR h
ENCODING 104
SWIDTH 685 0
DWIDTH 23 0
BBX 21 24 1 0
BITMAP
1E0000
FE0000
3E0000
1E0000
1E0000
1E0000
1E0000
1E0000
1E1E00
1E7F80
1EFF80
1F87C0
1F03C0
1F03C0
1E03C0
1E03C0
1E03C0
1E03C0
1E03C0
1E03C0
1E03C0
1E03C0
3F07E0
FFDFF8
ENDCHAR

STARTCHAR i
ENCODING 105
SWIDTH 370 0
DWIDTH 12 0
BBX 10 24 1 0
BITMAP
1C00
3E00
3E00
3E00
1C00
0000
0000
0000
3E00
FE00
3E00
1E00
1E00
1E00
1E00
1E00
1E00
1E00
1E00
1E00
1E00
1E00
3F00
FFC0
ENDCHAR

STARTCHAR j
ENCODING 106
SWIDTH 352 0
DWIDTH 12 0
BBX 9 30 -1 -6
BITMAP
0700
0F80
0F80
0F80
0700
0000
0000
0000
0780
3F80
0F80
0780
0780
0780
0780
0780
0780
0780
0780
0780
0780
0780
0780
0780
0780
0700
E700
E600
FC00
F800
ENDCHAR

STARTCHAR k
ENCODING 107
SWIDTH 667 0
DWIDTH 22 0
BBX 20 24 1 0
BITMAP
7E0000
FE0000
1E0000
1E0000
1E0000
1E0000
1E0000
1E0000
1E3FE0
1E0F80
1E0600
1E0C00
1E1800
1E3000
1E7800
1EFC00
1FBC00
1F3E00
1E1F00
1E1F00
1E0F80
1E07C0
3F07E0
FF9FF0
ENDCHAR

STARTCHAR l
ENCODING 108
SWIDTH 352 0
DWIDTH 12 0
BBX 10 24 1 0
BITMAP
1E00
FE00
3E00
1E00
1E00
1E00
1E00
1E00
1E00
1E00
1E00
1E00
1E00
1E00
1E00
1E00
1E00
1E00
1E00
1E00
1E00
1E00
3F00
FFC0
ENDCHAR

STARTCHAR m
ENCODING 109
SWIDTH 963 0
DWIDTH 32 0
BBX 32 16 0 0
BITMAP
0E1E03C0
FE7F8FF0
3EFF9FF0
1F87F0F8
1F03E078
1E03C078
1E03C078
1E03C078
1E03C078
1E03C078
1E03C078
1E03C078
1E03C078
1E03C078
3F07E0FC
FFDFFBFF
ENDCHAR

STARTCHAR n
ENCODING 110
SWIDTH 685 0
DWIDTH 23 0
BBX 21 16 1 0
BITMAP
061E00
FE7F80
3EFF80
1F87C0
1F07C0
1F03C0
1E03C0
1E03C0
1E03C0
1E03C0
1E03C0
1E03C0
1E03C0
1E03C0
3F07E0
FFDFF8
ENDCHAR

STARTCHAR o
ENCODING 111
SWIDTH 611 0
DWIDTH 20 0
BBX 17 16 2 0
BITMAP
07F000
1E3C00
3C1E00
7C0F00
780F00
F80F80
F80F80
F80F80
F80F80
F80F80
F80F80
780F00
7C0F00
3C1E00
1E3C00
07F000
ENDCHAR

STARTCHAR p
ENCODING 112
SWIDTH 667 0
DWIDTH 22 0
BBX 18 22 2 -6
BITMAP
0C3C00
FCFE00
7DFF00
3F0F80
3E0F80
3C07C0
3C07C0
3C07C0
3C07C0
3C07C0
3C07C0
3E07C0
3E0F80
3D1F80
3DFF00
3C7C00
3C0000
3C0000
3C0000
3C0000
7E0000
FF8000
ENDCHAR

STARTCHAR q
ENCODING 113
SWIDTH 648 0
DWIDTH 21 0
BBX 19 22 2 -6
BITMAP
0FE180
1F3300
3C1F00
7C1F00
780F00
F80F00
F80F00
F80F00
F80F00
F80F00
F80F00
FC1F00
7C1F00
3F7700
3FEF00
0F8F00
000F00
000F00
000F00
000F00
001F80
007FE0
ENDCHAR

STARTCHAR r
ENCODING 114
SWIDTH 519 0
DWIDTH 17 0
BBX 15 16 1 0
BITMAP
0E38
FE6E
3E9E
1F9E
1F0C
1F00
1F00
1E00
1E00
1E00
1E00
1E00
1E00
1E00
3F00
FFE0
ENDCHAR

STARTCHAR s
ENCODING 115
SWIDTH 500 0
DWIDTH 17 0
BBX 14 16 2 0
BITMAP
1FD8
70F8
6038
E018
E018
FE00
7FE0
7FF0
3FF8
0FFC
C07C
C01C
E01C
F018
FC70
CFE0
ENDCHAR

STARTCHAR t
ENCODING 116
SWIDTH 426 0
DWIDTH 14 0
BBX 13 22 1 0
BITMAP
0200
0600
0600
0600
0E00
1E00
FFF0
FFF0
1E00
1E00
1E00
1E00
1E00
1E00
1E00
1E18
1E18
1E18
1E10
1F30
0FE0
07C0
ENDCHAR

STARTCHAR u
ENCODING 117
SWIDTH 685 0
DWIDTH 23 0
BBX 21 16 1 0
BITMAP
1E03C0
FE1FC0
3E07C0
1E03C0
1E03C0
1E03C0
1E03C0
1E03C0
1E03C0
1E03C0
1E07C0
1F07C0
1F0DC0
0FFBE0
0FF3F8
03C3F8
ENDCHAR

STARTCHAR v
ENCODING 118
SWIDTH 611 0
DWIDTH 20 0
BBX 19 15 1 1
BITMAP
FF8FE0
7E03C0
3E0380
1E0300
1F0300
0F0600
0F8600
078C00
07CC00
03D800
03F800
01F000
00F000
00E000
006000
ENDCHAR

STARTCHAR w
ENCODING 119
SWIDTH 889 0
DWIDTH 29 0
BBX 26 15 2 1
BITMAP
FE7FCFC0
7C1F0780
7C1F0300
3C1F0600
3E1F8600
1E178400
1F37CC00
0F33CC00
0FE3F800
07E1F800
07C1F000
07C0F000
03C0F000
0380E000
01806000
ENDCHAR

STARTCHAR x
ENCODING 120
SWIDTH 611 0
DWIDTH 20 0
BBX 18 16 1 0
BITMAP
FF9FC0
3F0F00
1F0E00
1F0C00
0F9800
07D000
07E000
03E000
01F000
03F800
037C00
067C00
0C3E00
181F00
7C3F80
FE7FC0
ENDCHAR

STARTCHAR y
ENCODING 121
SWIDTH 611 0
DWIDTH 20 0
BBX 19 22 1 -6
BITMAP
FF8FE0
7E03C0
3E0180
1E0300
1F0300
0F0600
0F8600
078C00
07CC00
03F800
03F800
01F000
01F000
00E000
00E000
004000
00C000
708000
F18000
F30000
FE0000
3C0000
ENDCHAR

STARTCHAR z
ENCODING 122
SWIDTH 537 0
DWIDTH 18 0
BBX 14 16 2 0
BITMAP
7FFC
707C
60F8
61F0
41F0
43E0
07C0
07C0
0F80
1F00
1F04
3E0C
7C0C
7C1C
F83C
FFFC
ENDCHAR

STARTCHAR braceleft
ENCODING 123
SWIDTH 389 0
DWIDTH 13 0
BBX 9 30 2 -6
BITMAP
0780
0E00
1C00
3C00
3C00
3C00
3E00
3E00
1E00
1E00
1E00
1C00
1C00
3800
C000
6000
3800
1C00
1E00
1E00
1E00
3E00
3E00
3E00
3E00
3C00
3C00
1C00
0E00
0380
ENDCHAR

STARTCHAR bar
ENCODING 124
SWIDTH 606 0
DWIDTH 20 0
BBX 3 30 9 -6
BITMAP
E0
E0
E0
E0
E0
E0
E0
E0
E0
E0
E0
E0
E0
E0
E0
E0
E0
E0
E0
E0
E0
E0
E0
E0
E0
E0
E0
E0
E0
E0
ENDCHAR

STARTCHAR braceright
ENCODING 125
SWIDTH 389 0
DWIDTH 13 0
BBX 9 30 2 -6
BITMAP
F000
3800
1C00
1E00
1E00
3E00
3E00
3E00
3E00
3C00
3C00
1C00
1E00
0600
0080
0380
0E00
1C00
3C00
3C00
3C00
3E00
3E00
3E00
1E00
1E00
1E00
1C00
3800
F000
ENDCHAR

STARTCHAR asciitilde
ENCODING 126
SWIDTH 606 0
DWIDTH 20 0
BBX 18 6 1 8
BITMAP
1E0040
7F8040
7FF0C0
C3FF80
807F00
801E00
ENDCHAR

STARTCHAR space
ENCODING 160
SWIDTH 287 0
DWIDTH 11 0
BBX 0 0 0 0
BITMAP
ENDCHAR

STARTCHAR exclamdown
ENCODING 161
SWIDTH 296 0
DWIDTH 10 0
BBX 6 25 2 -6
BITMAP
30
78
FC
FC
78
30
00
00
30
30
30
30
30
30
30
78
78
78
78
7C
FC
FC
FC
78
78
ENDCHAR

STARTCHAR cent
ENCODING 162
SWIDTH 574 0
DWIDTH 19 0
BBX 16 24 2 -5
BITMAP
0003
0002
0006
07FC
1F0E
3C1E
7C1F
783E
F83E
F864
F840
F8C0
F880
F983
7D03
7F06
3E0C
17F8
0FE0
0C00
1800
1800
3000
6000
ENDCHAR

STARTCHAR sterling
ENCODING 163
SWIDTH 574 0
DWIDTH 19 0
BBX 18 23 0 -1
BITMAP
00FE00
03C700
078380
070780
0F0F80
0F0F80
0F0700
0F8000
0F8000
078000
3FFE00
3FFE00
03C000
03C000
01C000
01C000
7FC000
FFC040
C7F8C0
83FFC0
83FF80
CE7F80
7C3F00
ENDCHAR

STARTCHAR currency
ENCODING 164
SWIDTH 606 0
DWIDTH 20 0
BBX 17 17 1 2
BITMAP
200200
F3E700
7FFF80
3FFF00
3C1E00
380E00
700700
700700
700700
700700
700700
380E00
3C1E00
7FFF00
FFFF80
63E300
200100
ENDCHAR

STARTCHAR yen
ENCODING 165
SWIDTH 722 0
DWIDTH 24 0
BBX 23 22 1 0
BITMAP
FFE3FE
3F00F8
1F0060
0F8060
0F80C0
07C0C0
07E180
03E180
03F300
01F300
00FE00
7FFFFC
7FFFFC
007C00
007C00
007C00
7FFFFC
7FFFFC
007C00
007C00
007C00
07FFC0
ENDCHAR

STARTCHAR brokenbar
ENCODING 166
SWIDTH 606 0
DWIDTH 20 0
BBX 3 30 9 -6
BITMAP
E0
E0
E0
E0
E0
E0
E0
E0
E0
E0
E0
00
00
00
00
00
00
00
00
E0
E0
E0
E0
E0
E0
E0
E0
E0
E0
E0
ENDCHAR

STARTCHAR section
ENCODING 167
SWIDTH 500 0
DWIDTH 17 0
BBX 15 30 1 -6
BITMAP
07F0
1E38
3C3C
387C
3C7C
3C38
3E00
3F00
0FC0
1FE0
37F0
63F8
E1FC
E0FC
F07E
F83E
7C1C
7E1C
3F1C
1FD8
0FE0
07F0
03F8
00F8
3878
7C78
7C38
7878
38F0
1FC0
ENDCHAR

STARTCHAR dieresis
ENCODING 168
SWIDTH 333 0
DWIDTH 11 0
BBX 11 4 0 19
BITMAP
F1E0
F1E0
F1E0
70E0
ENDCHAR

STARTCHAR copyright
ENCODING 169
SWIDTH 747 0
DWIDTH 25 0
BBX 23 23 1 0
BITMAP
01FF00
0783C0
0C0060
180030
307C98
61C38C
438084
C78086
C70006
8F0002
8F0002
8F0002
8F0002
C70006
C78006
438084
61C30C
20FC08
300018
180070
0E00E0
07C780
00FE00
ENDCHAR

STARTCHAR ordfeminine
ENCODING 170
SWIDTH 367 0
DWIDTH 12 0
BBX 12 10 0 14
BITMAP
1F80
73C0
71C0
71C0
0FC0
79C0
F1C0
E1C0
F3D0
7CF0
ENDCHAR

STARTCHAR guillemotleft
ENCODING 171
SWIDTH 500 0
DWIDTH 17 0
BBX 16 14 0 2
BITMAP
0303
0706
0E0E
1E1C
1C3C
3C7C
F8F8
7C78
3C3C
1E3C
0E1E
060E
0706
0303
ENDCHAR

STARTCHAR logicalnot
ENCODING 172
SWIDTH 606 0
DWIDTH 20 0
BBX 18 11 1 6
BITMAP
FFFFC0
FFFFC0
FFFFC0
0001C0
0001C0
0001C0
0001C0
0001C0
0001C0
0001C0
0001C0
ENDCHAR

STARTCHAR hyphen
ENCODING 173
SWIDTH 333 0
DWIDTH 11 0
BBX 10 3 1 6
BITMAP
FFC0
FFC0
FFC0
ENDCHAR

STARTCHAR registered
ENCODING 174
SWIDTH 747 0
DWIDTH 25 0
BBX 23 22 1 0
BITMAP
01FF00
0781C0
0C0060
180038
37FE08
61C78C
41C384
C1C386
C1C382
81C782
81FD02
81DE02
C1CE02
C1CF06
C1C706
61C784
67F3CC
300018
180030
0E0060
0383C0
00FF00
ENDCHAR

STARTCHAR macron
ENCODING 175
SWIDTH 333 0
DWIDTH 11 0
BBX 11 3 0 19
BITMAP
FFE0
FFE0
FFE0
ENDCHAR

STARTCHAR degree
ENCODING 176
SWIDTH 400 0
DWIDTH 13 0
BBX 11 11 1 12
BITMAP
1F00
7FC0
71C0
E0E0
C060
C060
C060
E0E0
7BC0
7FC0
1F00
ENDCHAR

STARTCHAR plusminus
ENCODING 177
SWIDTH 606 0
DWIDTH 20 0
BBX 18 24 1 0
BITMAP
01C000
01C000
01C000
01C000
01C000
01C000
01C000
01C000
FFFFC0
FFFFC0
FFFFC0
01C000
01C000
01C000
01C000
01C000
01C000
01C000
000000
000000
000000
FFFFC0
FFFFC0
FFFFC0
ENDCHAR

STARTCHAR twosuperior
ENCODING 178
SWIDTH 344 0
DWIDTH 11 0
BBX 9 12 1 11
BITMAP
3F00
4780
C380
E380
6380
0700
0E00
1800
3080
7F80
FF80
FF80
ENDCHAR

STARTCHAR threesuperior
ENCODING 179
SWIDTH 344 0
DWIDTH 11 0
BBX 8 12 2 11
BITMAP
3C
C7
E7
E7
02
7C
07
C7
E7
C7
CE
7C
ENDCHAR

STARTCHAR acute
ENCODING 180
SWIDTH 333 0
DWIDTH 11 0
BBX 7 6 2 18
BITMAP
0C
1E
3E
3C
70
C0
ENDCHAR

STARTCHAR mu
ENCODING 181
SWIDTH 685 0
DWIDTH 23 0
BBX 18 23 3 -7
BITMAP
7C3E00
7C3E00
7C3E00
7C3E00
7C3E00
7C3E00
7C3E00
7C3E00
7C3E00
7C3E00
7C3E00
7C3E40
7C3E40
7C7EC0
7FDF80
6F1F00
600000
600000
700000
F00000
F00000
F00000
600000
ENDCHAR

STARTCHAR paragraph
ENCODING 182
SWIDTH 747 0
DWIDTH 25 0
BBX 19 29 3 -5
BITMAP
0FFFE0
1FE300
3FE300
7FE300
7FE300
7FE300
FFE300
FFE300
FFE300
7FE300
7FE300
7FE300
3FE300
1FE300
07E300
006300
006300
006300
006300
006300
006300
006300
006300
006300
006300
006300
006300
006300
006300
ENDCHAR

STARTCHAR periodcentered
ENCODING 183
SWIDTH 278 0
DWIDTH 9 0
BBX 5 5 2 11
BITMAP
70
F8
F8
F8
70
ENDCHAR

STARTCHAR cedilla
ENCODING 184
SWIDTH 333 0
DWIDTH 11 0
BBX 8 7 1 -6
BITMAP
3C
3E
7F
07
07
FE
F8
ENDCHAR

STARTCHAR onesuperior
ENCODING 185
SWIDTH 344 0
DWIDTH 11 0
BBX 7 12 2 11
BITMAP
08
F8
78
38
38
38
38
38
38
38
38
FE
ENDCHAR

STARTCHAR ordmasculine
ENCODING 186
SWIDTH 367 0
DWIDTH 12 0
BBX 11 9 0 15
BITMAP
1F80
39C0
70E0
F0E0
F0E0
F0E0
70E0
39C0
1F80
ENDCHAR

STARTCHAR guillemotright
ENCODING 187
SWIDTH 500 0
DWIDTH 17 0
BBX 16 14 0 2
BITMAP
E0C0
6060
7070
3838
3C3C
1E3E
1F1F
1F1E
1E3E
3C3C
3878
7070
6060
E0C0
ENDCHAR

STARTCHAR onequarter
ENCODING 188
SWIDTH 861 0
DWIDTH 28 0
BBX 22 24 3 0
BITMAP
080000
F80030
780020
380040
3800C0
380080
380100
380300
380200
380400
380C00
FE0800
001030
003070
0020F0
0040B0
00C170
008270
010470
030C70
020FFC
040070
0C0070
1801FC
ENDCHAR

STARTCHAR onehalf
ENCODING 189
SWIDTH 861 0
DWIDTH 28 0
BBX 23 24 3 0
BITMAP
080000
F80010
780020
380060
380040
380080
380180
380300
380200
380400
380C00
FE0800
0010FC
00311E
00230E
00438E
00C18E
01801C
010038
020060
0600C2
0401FE
0803FE
1803FE
ENDCHAR

STARTCHAR threequarters
ENCODING 190
SWIDTH 861 0
DWIDTH 28 0
BBX 23 23 3 0
BITMAP
3C0000
C70018
E70030
E70020
020040
3C00C0
070180
C70100
E70200
C70600
CF0400
7C0800
001818
001038
002078
0060B8
00C138
008238
010638
0307FE
020038
040038
0C00FE
ENDCHAR

STARTCHAR questiondown
ENCODING 191
SWIDTH 500 0
DWIDTH 17 0
BBX 13 25 2 -6
BITMAP
0300
0780
0FC0
0FC0
0780
0300
0000
0000
0100
0300
0300
0300
0600
0E00
3C00
3C00
7800
7870
F8F8
F8F8
F8F8
7838
7C30
3C60
0FC0
ENDCHAR

STARTCHAR Agrave
ENCODING 192
SWIDTH 759 0
DWIDTH 25 0
BBX 25 32 0 0
BITMAP
00700000
00780000
007C0000
003C0000
000E0000
00010000
00000000
00000000
001C0000
001C0000
001C0000
003E0000
003E0000
007F0000
006F0000
00DF8000
00CF8000
008F8000
0187C000
0187C000
0303E000
0303E000
0201F000
07FFF000
07FFF000
0C00F800
0C00F800
1800FC00
18007C00
38007E00
7C007E00
FF83FF80
ENDCHAR

STARTCHAR Aacute
ENCODING 193
SWIDTH 759 0
DWIDTH 25 0
BBX 25 32 0 0
BITMAP
00070000
000F0000
001F0000
003E0000
00380000
00400000
00000000
00000000
001C0000
001C0000
001C0000
003E0000
003E0000
007F0000
006F0000
00DF8000
00CF8000
008F8000
0187C000
0187C000
0303E000
0303E000
0201F000
07FFF000
07FFF000
0C00F800
0C00F800
1800FC00
18007C00
38007E00
7C007E00
FF83FF80
ENDCHAR

STARTCHAR Acircumflex
ENCODING 194
SWIDTH 759 0
DWIDTH 25 0
BBX 25 32 0 0
BITMAP
003E0000
007F0000
00770000
00E38000
00818000
01004000
00000000
00000000
001C0000
001C0000
001C0000
003E0000
003E0000
007F0000
006F0000
00DF8000
00CF8000
008F8000
0187C000
0187C000
0303E000
0303E000
0201F000
07FFF000
07FFF000
0C00F800
0C00F800
1800FC00
18007C00
38007E00
7C007E00
FF83FF80
ENDCHAR

STARTCHAR Atilde
ENCODING 195
SWIDTH 759 0
DWIDTH 25 0
BBX 25 31 0 0
BITMAP
00704000
00FFC000
01FF8000
01070000
00000000
00000000
00000000
001C0000
001C0000
001C0000
003E0000
003E0000
007F0000
006F0000
00DF8000
00CF8000
008F8000
0187C000
0187C000
0303E000
0303E000
0201F000
07FFF000
07FFF000
0C00F800
0C00F800
1800FC00
18007C00
38007E00
7C007E00
FF83FF80
ENDCHAR

STARTCHAR Adieresis
ENCODING 196
SWIDTH 759 0
DWIDTH 25 0
BBX 25 31 0 0
BITMAP
01E3C000
01E3C000
01E3C000
00E1C000
00000000
00000000
00000000
000C0000
001C0000
001E0000
003E0000
003E0000
007F0000
006F0000
004F8000
00CF8000
00CF8000
0187C000
0187C000
0303E000
0303E000
0201F000
07FFF000
07FFF000
0C00F800
0C00F800
0800FC00
18007C00
38007E00
7C007E00
FF83FF80
ENDCHAR

STARTCHAR Aring
ENCODING 197
SWIDTH 759 0
DWIDTH 25 0
BBX 26 32 -1 0
BITMAP
001E0000
00330000
00210000
00210000
00330000
001E0000
00000000
00000000
000C0000
000E0000
001E0000
001E0000
003F0000
003F0000
002F8000
006F8000
006F8000
00C7C000
00C7C000
0183E000
0183E000
0103F000
0301F000
03FFF000
07FFF800
0600F800
0400FC00
0C007C00
0C007C00
1C003E00
3E007F00
FF81FFC0
ENDCHAR

STARTCHAR AE
ENCODING 198
SWIDTH 981 0
DWIDTH 32 0
BBX 32 24 -1 0
BITMAP
00FFFFFE
000EF83E
000DF01E
000DF00E
0019F006
0019F006
0031F0C6
0021F0C2
0061F0C0
0041F1C0
00C1F3C0
0081FFC0
01FFF3C0
0301F1C0
0301F0C0
0601F0C3
0601F0C3
0C01F003
0C01F003
1801F007
1801F007
3801F00F
FC03F83F
FE1FFFFE
ENDCHAR

STARTCHAR Ccedilla
ENCODING 199
SWIDTH 778 0
DWIDTH 26 0
BBX 21 30 2 -6
BITMAP
007C10
03FF30
0781D0
1F00F0
1E0070
3E0030
7E0030
7C0018
7C0018
FC0000
FC0000
FC0000
FC0000
FC0000
FC0000
7C0000
7C0018
7E0018
3E0010
3F0030
1F0060
0FC1C0
03FF80
00BC00
007800
01FC00
003C00
003C00
03F800
03E000
ENDCHAR

STARTCHAR Egrave
ENCODING 200
SWIDTH 759 0
DWIDTH 25 0
BBX 22 33 1 0
BITMAP
00E000
00F000
00F800
007800
001C00
000600
000000
000000
000000
FFFFF8
1FC0F8
0F8038
0F8018
0F8018
0F8008
0F830C
0F830C
0F8300
0F8700
0F8F00
0FFF00
0F8F00
0F8700
0F8300
0F8304
0F8304
0F800C
0F800C
0F800C
0F801C
0F803C
1FC0FC
FFFFFC
ENDCHAR

STARTCHAR Eacute
ENCODING 201
SWIDTH 759 0
DWIDTH 25 0
BBX 22 33 1 0
BITMAP
000E00
001E00
003E00
007C00
007000
008000
000000
000000
000000
FFFFF8
1FC0F8
0F8038
0F8018
0F8018
0F8008
0F830C
0F830C
0F8300
0F8700
0F8F00
0FFF00
0F8F00
0F8700
0F8300
0F8304
0F8304
0F800C
0F800C
0F800C
0F801C
0F803C
1FC0FC
FFFFFC
ENDCHAR

STARTCHAR Ecircumflex
ENCODING 202
SWIDTH 759 0
DWIDTH 25 0
BBX 22 33 1 0
BITMAP
007C00
00FE00
00EE00
01C700
018300
020080
000000
000000
000000
FFFFF8
1FC0F8
0F8038
0F8018
0F8018
0F8008
0F830C
0F830C
0F8300
0F8700
0F8F00
0FFF00
0F8F00
0F8700
0F8300
0F8304
0F8304
0F800C
0F800C
0F800C
0F801C
0F803C
1FC0FC
FFFFFC
ENDCHAR

STARTCHAR Edieresis
ENCODING 203
SWIDTH 759 0
DWIDTH 25 0
BBX 22 32 1 0
BITMAP
03C780
03C780
03C780
01C380
000000
000000
000000
000000
FFFFF8
1FC0F8
0F8038
0F8018
0F801C
0F800C
0F830C
0F830C
0F8300
0F8700
0F8F00
0FFF00
0F8F00
0F8700
0F8300
0F8304
0F8304
0F800C
0F800C
0F800C
0F801C
0F803C
1FC0FC
FFFFFC
ENDCHAR

STARTCHAR Igrave
ENCODING 204
SWIDTH 444 0
DWIDTH 15 0
BBX 13 33 1 0
BITMAP
1C00
1E00
1F00
0F00
0380
00C0
0000
0000
0000
FFF8
1FC0
0F80
0F80
0F80
0F80
0F80
0F80
0F80
0F80
0F80
0F80
0F80
0F80
0F80
0F80
0F80
0F80
0F80
0F80
0F80
0F80
1FC0
FFF8
ENDCHAR

STARTCHAR Iacute
ENCODING 205
SWIDTH 444 0
DWIDTH 15 0
BBX 13 33 1 0
BITMAP
01C0
03C0
07C0
0780
0E00
1800
0000
0000
0000
FFF8
1FC0
0F80
0F80
0F80
0F80
0F80
0F80
0F80
0F80
0F80
0F80
0F80
0F80
0F80
0F80
0F80
0F80
0F80
0F80
0F80
0F80
1FC0
FFF8
ENDCHAR

STARTCHAR Icircumflex
ENCODING 206
SWIDTH 444 0
DWIDTH 15 0
BBX 13 33 1 0
BITMAP
0F80
1FC0
1DC0
38E0
3060
4010
0000
0000
0000
FFF8
1FC0
0F80
0F80
0F80
0F80
0F80
0F80
0F80
0F80
0F80
0F80
0F80
0F80
0F80
0F80
0F80
0F80
0F80
0F80
0F80
0F80
1FC0
FFF8
ENDCHAR

STARTCHAR Idieresis
ENCODING 207
SWIDTH 444 0
DWIDTH 15 0
BBX 13 32 1 0
BITMAP
78F0
78F0
78F0
3870
0000
0000
0000
0000
FFF8
1FC0
0F80
0F80
0F80
0F80
0F80
0F80
0F80
0F80
0F80
0F80
0F80
0F80
0F80
0F80
0F80
0F80
0F80
0F80
0F80
0F80
1FC0
FFF8
ENDCHAR

STARTCHAR Gbreve
ENCODING 208
SWIDTH 833 0
DWIDTH 27 0
BBX 25 32 2 0
BITMAP
00808000
00C18000
00FF0000
007F0000
003E0000
00000000
00000000
00000000
01FE1800
07E3B800
0F80F800
1F007800
3E003800
3E003800
7C001800
7C001800
7C001800
FC000000
FC000000
FC000000
FC000000
FC07FF80
FC007C00
7C007C00
7C007C00
7C007C00
3E007C00
3E007C00
1F00EC00
0F81DC00
07C78C00
01FE0C00
ENDCHAR

STARTCHAR Ntilde
ENCODING 209
SWIDTH 833 0
DWIDTH 27 0
BBX 25 32 1 0
BITMAP
00784000
00FFC000
00FF8000
01070000
00000000
00000000
00000000
00000000
FF007F80
1F803F00
0FC01E00
0FC00C00
0FE00C00
0DF00C00
0DF80C00
0CF80C00
0CFC0C00
0C7E0C00
0C3F0C00
0C1F0C00
0C1F8C00
0C0FCC00
0C07EC00
0C03EC00
0C03FC00
0C01FC00
0C00FC00
0C007C00
0C007C00
1E003C00
3F001C00
FFC00C00
ENDCHAR

STARTCHAR Ograve
ENCODING 210
SWIDTH 833 0
DWIDTH 27 0
BBX 24 32 2 0
BITMAP
007000
00F800
007800
003C00
000E00
000300
000000
000000
007E00
03FFC0
0781F0
0F00F8
1E007C
3E003E
7E003E
7C003F
7C001F
FC001F
FC001F
FC001F
FC001F
FC001F
FC003F
7C003F
7C003F
7E003E
3E007C
1E007C
0F00F8
0781F0
01FFC0
003E00
ENDCHAR

STARTCHAR Oacute
ENCODING 211
SWIDTH 833 0
DWIDTH 27 0
BBX 24 32 2 0
BITMAP
000600
000F00
001F00
003C00
003000
004000
000000
000000
007E00
03FFC0
0781E0
0F00F0
1E0078
3E007C
7E003E
7C003E
7C003E
FC003F
FC003F
FC003F
FC003F
FC003F
FC003F
7C003E
7C003E
7C003E
3E007C
1E0078
0F00F0
0781E0
01FFC0
007E00
ENDCHAR

STARTCHAR Ocircumflex
ENCODING 212
SWIDTH 833 0
DWIDTH 27 0
BBX 24 32 2 0
BITMAP
007E00
007E00
00F700
00E700
008180
010080
000000
000000
007E00
03FFC0
0781E0
0F00F0
1E0078
3E007C
7E003E
7C003E
7C003E
FC003F
FC003F
FC003F
FC003F
FC003F
FC003F
7C003E
7C003E
7C003E
3E007C
1E0078
0F00F0
0781E0
01FFC0
007E00
ENDCHAR

STARTCHAR Otilde
ENCODING 213
SWIDTH 833 0
DWIDTH 27 0
BBX 24 31 2 0
BITMAP
00F040
01FF80
01FF80
010E00
000000
000000
000000
007E00
03FFC0
0781E0
0F00F0
1E0078
3E007C
7E003E
7C003E
7C003E
FC003F
FC003F
FC003F
FC003F
FC003F
FC003F
7C003E
7C003E
7C003E
3E007C
1E0078
0F00F0
0781E0
01FFC0
007E00
ENDCHAR

STARTCHAR Odieresis
ENCODING 214
SWIDTH 833 0
DWIDTH 27 0
BBX 25 31 1 0
BITMAP
01E3C000
01E3C000
01E3C000
01E1C000
00000000
00000000
00000000
003F0000
01FFC000
07C0F000
0F007800
1F003C00
3E003E00
7E003F00
7E001F00
7C001F00
FC001F80
FC001F80
FC001F80
FC001F80
FC001F80
FC001F80
7C001F00
7E003F00
7E003F00
3E003E00
1F007C00
0F007800
07C1F000
01FFC000
003E0000
ENDCHAR

STARTCHAR multiply
ENCODING 215
SWIDTH 650 0
DWIDTH 21 0
BBX 17 17 2 3
BITMAP
200100
600300
F00780
780F00
3C1E00
1E3C00
0F7800
07F000
01E000
03E000
07F000
0F7800
1E3C00
3C1E00
780F00
F00780
600300
ENDCHAR

STARTCHAR Oslash
ENCODING 216
SWIDTH 833 0
DWIDTH 27 0
BBX 24 24 2 0
BITMAP
007E06
03FF8C
0781E8
0F00F8
1E007C
3E007C
7E00BE
7C01BE
7C013F
FC023F
FC043F
FC083F
FC103F
FC203F
FC403F
7C403E
7C803E
7D007E
3E007C
3E0078
1F00F0
1781E0
31FFC0
607E00
ENDCHAR

STARTCHAR Ugrave
ENCODING 217
SWIDTH 833 0
DWIDTH 27 0
BBX 26 33 1 0
BITMAP
00700000
00780000
007C0000
003E0000
000E0000
00010000
00000000
00000000
00000000
FFF0FFC0
3F803F00
1F001E00
1F000C00
1F000C00
1F000C00
1F000C00
1F000C00
1F000C00
1F000C00
1F000C00
1F000C00
1F000C00
1F000C00
1F000C00
1F000C00
1F000C00
1F000C00
1F801C00
1F801800
0FC03800
07F0F000
03FFE000
00FF8000
ENDCHAR

STARTCHAR Uacute
ENCODING 218
SWIDTH 833 0
DWIDTH 27 0
BBX 26 33 1 0
BITMAP
00070000
000F0000
001F0000
001E0000
00380000
00600000
00000000
00000000
00000000
FFF0FFC0
3F803F00
1F001E00
1F000C00
1F000C00
1F000C00
1F000C00
1F000C00
1F000C00
1F000C00
1F000C00
1F000C00
1F000C00
1F000C00
1F000C00
1F000C00
1F000C00
1F000C00
1F801C00
1F801800
0FC03800
07F0F000
03FFE000
00FF8000
ENDCHAR

STARTCHAR Ucircumflex
ENCODING 219
SWIDTH 833 0
DWIDTH 27 0
BBX 26 33 1 0
BITMAP
003E0000
007F0000
00770000
00E38000
00C18000
01004000
00000000
00000000
00000000
FFF0FFC0
3F803F00
1F001E00
1F000C00
1F000C00
1F000C00
1F000C00
1F000C00
1F000C00
1F000C00
1F000C00
1F000C00
1F000C00
1F000C00
1F000C00
1F000C00
1F000C00
1F000C00
1F801C00
1F801800
0FC03800
07F0F000
03FFE000
00FF8000
ENDCHAR

STARTCHAR Udieresis
ENCODING 220
SWIDTH 833 0
DWIDTH 27 0
BBX 26 32 1 0
BITMAP
01E3C000
01E3C000
01E3C000
00E1C000
00000000
00000000
00000000
00000000
FFF0FFC0
3F803F00
1F001E00
1F000C00
1F000C00
1F000C00
1F000C00
1F000C00
1F000C00
1F000C00
1F000C00
1F000C00
1F000C00
1F000C00
1F000C00
1F000C00
1F000C00
1F000C00
1F801C00
1F801800
0FC03800
07F1F000
03FFE000
00FF8000
ENDCHAR

STARTCHAR Idotaccent
ENCODING 221
SWIDTH 444 0
DWIDTH 15 0
BBX 13 32 1 0
BITMAP
0F00
0F00
0F00
0700
0000
0000
0000
0000
FFF8
1FC0
0F80
0F80
0F80
0F80
0F80
0F80
0F80
0F80
0F80
0F80
0F80
0F80
0F80
0F80
0F80
0F80
0F80
0F80
0F80
0F80
1FC0
FFF8
ENDCHAR

STARTCHAR Scedilla
ENCODING 222
SWIDTH 667 0
DWIDTH 22 0
BBX 18 30 2 -6
BITMAP
07C000
1FF980
381D80
700780
E00780
E00380
E00180
F00180
F80000
FF0000
7FF800
7FFE00
1FFF80
07FF80
007FC0
0007C0
8003C0
C001C0
C001C0
E001C0
F00380
F80380
CE0E00
87F800
01F000
03F800
003800
003800
07F000
07C000
ENDCHAR

STARTCHAR germandbls
ENCODING 223
SWIDTH 611 0
DWIDTH 20 0
BBX 18 24 1 0
BITMAP
03FC00
0F1F00
1E0F00
1E0780
3C0780
3C0780
3C0780
3C0F00
3C0F00
3C7000
3C7C00
3C0F00
3C0780
3C0780
3C07C0
3C07C0
3C07C0
3C07C0
3C07C0
3CF780
3CF780
3CF700
7C6600
FE3C00
ENDCHAR

STARTCHAR agrave
ENCODING 224
SWIDTH 611 0
DWIDTH 20 0
BBX 18 24 1 0
BITMAP
038000
03C000
03E000
01F000
003000
000800
000000
000000
0FF800
1C7C00
3C3E00
7C1E00
7C1E00
381E00
007E00
07FE00
1E1E00
7C1E00
781E00
F81E00
F83E00
FC6E00
7F8FC0
3F0780
ENDCHAR

STARTCHAR aacute
ENCODING 225
SWIDTH 611 0
DWIDTH 20 0
BBX 18 24 1 0
BITMAP
003800
007800
00F800
01E000
018000
020000
000000
000000
0FF800
1C7C00
3C3E00
7C1E00
7C1E00
381E00
007E00
07FE00
1E1E00
7C1E00
781E00
F81E00
F83E00
FC6E00
7F8FC0
3F0780
ENDCHAR

STARTCHAR acircumflex
ENCODING 226
SWIDTH 611 0
DWIDTH 20 0
BBX 18 24 1 0
BITMAP
03F000
03F800
03B800
071C00
040C00
080200
000000
000000
0FF800
1C7C00
3C3E00
7C1E00
7C1E00
381E00
007E00
07FE00
1E1E00
7C1E00
781E00
F81E00
F83E00
FC6E00
7F8FC0
3F0780
ENDCHAR

STARTCHAR atilde
ENCODING 227
SWIDTH 611 0
DWIDTH 20 0
BBX 18 23 1 0
BITMAP
038200
07FE00
0FFC00
083800
000000
000000
000000
0FF800
1C7C00
3C3E00
7C1E00
7C1E00
381E00
007E00
07FE00
1E1E00
7C1E00
781E00
F81E00
F83E00
FC6E00
7F8FC0
3F0780
ENDCHAR

STARTCHAR adieresis
ENCODING 228
SWIDTH 611 0
DWIDTH 20 0
BBX 18 23 1 0
BITMAP
0F1E00
0F1E00
0F1E00
070C00
000000
000000
000000
0FF800
1C7C00
3C3E00
7C1E00
7C1E00
381E00
007E00
07FE00
1E1E00
7C1E00
781E00
F81E00
F83E00
FC6E00
7F8FC0
3F0780
ENDCHAR

STARTCHAR aring
ENCODING 229
SWIDTH 611 0
DWIDTH 20 0
BBX 18 24 1 0
BITMAP
01E000
033000
021000
021000
033000
01E000
000000
000000
0FF800
1C7C00
3C3E00
7C1E00
7C1E00
381E00
007E00
07FE00
1E1E00
7C1E00
781E00
F81E00
F83E00
FC6E00
7F8FC0
3F0780
ENDCHAR

STARTCHAR ae
ENCODING 230
SWIDTH 870 0
DWIDTH 29 0
BBX 25 16 2 0
BITMAP
0FF3F800
3C7F1C00
783E0E00
781E0F00
781E0700
381E0780
007E0F80
07FFFF80
1E1E0000
7C1E0000
781E0000
F83E0180
F83F0300
FCCF8700
7F87FC00
3E01F000
ENDCHAR

STARTCHAR ccedilla
ENCODING 231
SWIDTH 556 0
DWIDTH 18 0
BBX 17 22 1 -6
BITMAP
07F800
0F1E00
3C0F00
7C1F00
7C1F00
F81E00
F80000
F80000
F80000
F80000
FC0180
7C0300
7C0300
3E0E00
1FF800
05E000
03E000
07F000
01F000
01F000
1FE000
1F8000
ENDCHAR

STARTCHAR egrave
ENCODING 232
SWIDTH 574 0
DWIDTH 19 0
BBX 15 24 2 0
BITMAP
0F00
0F00
0F80
03C0
00E0
0020
0000
0000
0FE0
1E78
3C3C
781C
F81E
F81E
F83E
FFFE
F800
F800
F800
7802
7C06
3E0C
1FF8
03C0
ENDCHAR

STARTCHAR eacute
ENCODING 233
SWIDTH 574 0
DWIDTH 19 0
BBX 15 24 2 0
BITMAP
00E0
01E0
03E0
03C0
0E00
0400
0000
0000
0FE0
1E78
3C3C
781C
F81E
F81E
F83E
FFFE
F800
F800
F800
7802
7C06
3E0C
1FF8
03C0
ENDCHAR

STARTCHAR ecircumflex
ENCODING 234
SWIDTH 574 0
DWIDTH 19 0
BBX 15 24 2 0
BITMAP
07C0
0FE0
0EE0
1C70
1810
2008
0000
0000
0FE0
1E78
3C3C
781C
F81E
F81E
F83E
FFFE
F800
F800
F800
7802
7C06
3E0C
1FF8
03C0
ENDCHAR

STARTCHAR edieresis
ENCODING 235
SWIDTH 574 0
DWIDTH 19 0
BBX 15 23 2 0
BITMAP
3C78
3C78
3C78
1830
0000
0000
0000
0FE0
3E78
7838
781C
F81C
F81E
F03E
FFFE
F800
F800
F800
F806
7C06
3E1C
1FF0
07C0
ENDCHAR

STARTCHAR igrave
ENCODING 236
SWIDTH 370 0
DWIDTH 12 0
BBX 10 24 1 0
BITMAP
3800
7C00
3E00
1E00
0700
0100
0000
0000
3E00
FE00
3E00
1E00
1E00
1E00
1E00
1E00
1E00
1E00
1E00
1E00
1E00
1E00
3F00
FFC0
ENDCHAR

STARTCHAR iacute
ENCODING 237
SWIDTH 370 0
DWIDTH 12 0
BBX 10 24 1 0
BITMAP
0700
0F80
0F00
1E00
3800
2000
0000
0000
3E00
FE00
3E00
1E00
1E00
1E00
1E00
1E00
1E00
1E00
1E00
1E00
1E00
1E00
3F00
FFC0
ENDCHAR

STARTCHAR icircumflex
ENCODING 238
SWIDTH 370 0
DWIDTH 12 0
BBX 10 24 1 0
BITMAP
3F00
3F00
7F80
7380
C0C0
8040
0000
0000
3E00
FE00
3E00
1E00
1E00
1E00
1E00
1E00
1E00
1E00
1E00
1E00
1E00
1E00
3F00
FFC0
ENDCHAR

STARTCHAR idieresis
ENCODING 239
SWIDTH 370 0
DWIDTH 12 0
BBX 11 23 1 0
BITMAP
F1E0
F1E0
F1E0
70C0
0000
0000
0000
3E00
FE00
3E00
1E00
1E00
1E00
1E00
1E00
1E00
1E00
1E00
1E00
1E00
1E00
3F00
FF80
ENDCHAR

STARTCHAR gbreve
ENCODING 240
SWIDTH 611 0
DWIDTH 20 0
BBX 19 30 1 -6
BITMAP
0C0400
061C00
07F800
03F000
01E000
000000
0001C0
0003E0
0FFEE0
1E3CC0
3C1E00
7C1F00
7C1F00
7C1F00
7C1F00
3C1E00
2E3C00
1FF800
300000
600000
600000
7FFC00
7FFF00
3FFF00
1FFF80
700380
E00380
E00300
781E00
1FF800
ENDCHAR

STARTCHAR ntilde
ENCODING 241
SWIDTH 685 0
DWIDTH 23 0
BBX 21 23 1 0
BITMAP
03E100
07FF00
07FE00
043C00
000000
000000
000000
061E00
FE7F80
3EFF80
1F87C0
1F07C0
1F03C0
1E03C0
1E03C0
1E03C0
1E03C0
1E03C0
1E03C0
1E03C0
1E03C0
3F07E0
FFDFF8
ENDCHAR

STARTCHAR ograve
ENCODING 242
SWIDTH 611 0
DWIDTH 20 0
BBX 17 24 2 0
BITMAP
078000
078000
07C000
01E000
006000
001000
000000
000000
07F000
1E3C00
3C1E00
7C0F00
780F00
F80F80
F80F80
F80F80
F80F80
F80F80
F80F80
780F00
7C0F00
3C1E00
1E3C00
07F000
ENDCHAR

STARTCHAR oacute
ENCODING 243
SWIDTH 611 0
DWIDTH 20 0
BBX 17 24 2 0
BITMAP
007000
00F000
01F000
01C000
070000
020000
000000
000000
07F000
1E3C00
3C1E00
7C0F00
780F00
F80F80
F80F80
F80F80
F80F80
F80F80
F80F80
780F00
7C0F00
3C1E00
1E3C00
07F000
ENDCHAR

STARTCHAR ocircumflex
ENCODING 244
SWIDTH 611 0
DWIDTH 20 0
BBX 17 24 2 0
BITMAP
03E000
07F000
077000
0E3800
0C0800
100400
000000
000000
07F000
1E3C00
3C1E00
7C0F00
780F00
F80F80
F80F80
F80F80
F80F80
F80F80
F80F80
780F00
7C0F00
3C1E00
1E3C00
07F000
ENDCHAR

STARTCHAR otilde
ENCODING 245
SWIDTH 611 0
DWIDTH 20 0
BBX 17 23 2 0
BITMAP
078400
0FFC00
1FF800
107000
000000
000000
000000
07F000
1E3C00
3C1E00
7C0F00
780F00
F80F80
F80F80
F80F80
F80F80
F80F80
F80F80
780F00
7C0F00
3C1E00
1E3C00
07F000
ENDCHAR

STARTCHAR odieresis
ENCODING 246
SWIDTH 611 0
DWIDTH 20 0
BBX 17 23 2 0
BITMAP
1E3C00
1E3C00
1E3C00
0C1800
000000
000000
000000
07F000
1E3C00
3C1E00
7C0F00
780F00
F80F80
F80F80
F80F80
F80F80
F80F80
F80F80
780F00
7C0F00
3C1E00
1E3C00
07F000
ENDCHAR

STARTCHAR divide
ENCODING 247
SWIDTH 606 0
DWIDTH 20 0
BBX 18 17 1 3
BITMAP
00C000
01E000
01E000
00C000
000000
000000
000000
FFFFC0
FFFFC0
FFFFC0
000000
000000
000000
00C000
01E000
01E000
00C000
ENDCHAR

STARTCHAR oslash
ENCODING 248
SWIDTH 611 0
DWIDTH 20 0
BBX 17 16 2 0
BITMAP
07F180
1E3F00
3C1E00
7C0F00
781F00
F83F80
F86F80
F8CF80
F98F80
FB0F80
FE0F80
7E0F00
7C0F00
3C1E00
3E3C00
E7F000
ENDCHAR

STARTCHAR ugrave
ENCODING 249
SWIDTH 685 0
DWIDTH 23 0
BBX 21 24 1 0
BITMAP
01C000
01E000
01F000
007800
001C00
000400
000000
000000
1E03C0
FE1FC0
3E07C0
1E03C0
1E03C0
1E03C0
1E03C0
1E03C0
1E03C0
1E03C0
1E07C0
1F07C0
1F0DC0
0FFBE0
0FF3F8
03C3F8
ENDCHAR

STARTCHAR uacute
ENCODING 250
SWIDTH 685 0
DWIDTH 23 0
BBX 21 24 1 0
BITMAP
001C00
003C00
007C00
007800
00E000
010000
000000
000000
1E03C0
FE1FC0
3E07C0
1E03C0
1E03C0
1E03C0
1E03C0
1E03C0
1E03C0
1E03C0
1E07C0
1F07C0
1F0DC0
0FFBE0
0FF3F8
03C3F8
ENDCHAR

STARTCHAR ucircumflex
ENCODING 251
SWIDTH 685 0
DWIDTH 23 0
BBX 21 24 1 0
BITMAP
00F800
01FC00
01FC00
038E00
030600
060100
000000
000000
1E03C0
FE1FC0
3E07C0
1E03C0
1E03C0
1E03C0
1E03C0
1E03C0
1E03C0
1E03C0
1E07C0
1F07C0
1F0DC0
0FFBE0
0FF3F8
03C3F8
ENDCHAR

STARTCHAR udieresis
ENCODING 252
SWIDTH 685 0
DWIDTH 23 0
BBX 21 23 1 0
BITMAP
078F00
078F00
078F00
030600
000000
000000
000000
1E03C0
FE1FC0
3E07C0
1E03C0
1E03C0
1E03C0
1E03C0
1E03C0
1E03C0
1E03C0
1E07C0
1F07C0
1F0DC0
0FFBE0
0FF3F8
03C3F8
ENDCHAR

STARTCHAR dotlessi
ENCODING 253
SWIDTH 370 0
DWIDTH 12 0
BBX 10 16 1 0
BITMAP
3E00
FE00
3E00
1E00
1E00
1E00
1E00
1E00
1E00
1E00
1E00
1E00
1E00
1E00
3F00
FFC0
ENDCHAR

STARTCHAR scedilla
ENCODING 254
SWIDTH 500 0
DWIDTH 17 0
BBX 14 22 2 -6
BITMAP
0F10
3FF0
7070
6030
E010
F000
FF80
7FF0
3FF8
1FF8
01FC
C03C
C01C
E018
F838
CFE0
0780
0FE0
00E0
00E0
1FC0
1F00
ENDCHAR

STARTCHAR ydieresis
ENCODING 255
SWIDTH 611 0
DWIDTH 20 0
BBX 19 30 1 -6
BITMAP
0F1E00
0F1E00
0F1E00
070E00
000000
000000
000000
000000
FF8FE0
7E03C0
3E0180
1E0300
1F0300
0F0600
0F8600
078C00
07CC00
03F800
03F800
01F000
01F000
00E000
00E000
004000
00C000
708000
F18000
F30000
FE0000
3C0000
ENDCHAR
ENDFONT
